<?xml version="1.0" encoding="UTF-8"?>
<svg id="Layer_2" data-name="Layer 2" xmlns="http://www.w3.org/2000/svg" viewBox="0 0 43.49 86.06">
  <defs>
    <style>
      .cls-1 {
        stroke-width: 0px;
      }
    </style>
  </defs>
  <path class="cls-1" d="m19.43,12.51h4.47c.05.23.1.45.14.67.77,3.96,2.67,7.32,5.48,10.19,1.7,1.73,3.6,3.15,5.87,4.04,2.41.95,4.92,1.25,7.49,1.11.15,0,.3-.02.44-.02.12.43.14,3.91.03,4.58-8.07.69-14.39-2.43-19.2-8.97-.04.35-.08.61-.1.86-.3,3.64.44,6.99,2.75,9.91.85,1.08,1.82,2.05,2.89,2.91,2.7,2.17,5.78,3.38,9.23,3.66,1.21.1,2.43.08,3.64.11.26,0,.53,0,.84,0v4.56c-1.17.03-2.3.09-3.44.07-2.44-.05-4.84-.43-7.15-1.26-3.26-1.17-5.97-3.12-8.24-5.72-.12-.14-.25-.27-.45-.48-.05.41-.09.72-.11,1.04-.21,3.38.85,6.33,3.04,8.87,2.66,3.09,5.97,5.08,10.01,5.75.93.15,1.89.21,2.83.25.97.04,1.94,0,2.91.01.18,0,.37.02.58.03v4.43c-.16.03-.31.08-.45.08-3.03.16-6.03.06-8.99-.72-3.72-.99-6.85-2.94-9.42-5.79-.13-.14-.26-.27-.4-.4,0,0-.03,0-.08.01v14.69c.23,0,.45,0,.67,0,5.83,0,11.67,0,17.5,0,.21,0,.42,0,.63.01.42.05.6.24.65.66.01.09,0,.19,0,.28,0,1.01,0,2.01-.02,3.02,0,.17-.02.33-.03.56h-19.45v14.43c-.47.13-3.73.16-4.45.04v-14.39c-.2-.02-.36-.04-.53-.04-5.7,0-11.4.01-17.1.02-.36,0-.72,0-1.08,0-.6-.03-.81-.24-.83-.84,0-.08,0-.15,0-.23,0-.87,0-1.75.01-2.62,0-.26,0-.52,0-.83h19.31c.12-.46.17-13.6.05-14.78-.18.19-.31.32-.44.47-2.24,2.56-4.96,4.41-8.2,5.45-2.28.73-4.62,1.06-7.01,1.08-.95,0-1.9-.01-2.85-.03-.26,0-.52-.05-.8-.08v-4.48c.23,0,.43,0,.63,0,1.46-.03,2.93,0,4.39-.09,3.48-.23,6.56-1.51,9.24-3.74,1.6-1.32,2.96-2.84,3.9-4.71.81-1.62,1.25-3.34,1.21-5.16-.01-.72-.03-1.44-.14-2.22-.13.14-.27.27-.39.42-1.77,2.02-3.81,3.7-6.22,4.92-2.42,1.22-5,1.86-7.7,2.07-1.43.11-2.85.07-4.27-.03-.19-.01-.37-.05-.59-.08v-4.5c.27,0,.52,0,.76,0,2.11.07,4.22,0,6.29-.49,4.39-1.02,7.73-3.5,10.18-7.24.8-1.23,1.54-2.49,1.85-3.95.28-1.29.35-2.6.3-3.91-.02-.58-.05-1.16-.09-1.87-.21.25-.33.38-.44.53-2.07,2.6-4.47,4.81-7.42,6.38-2.14,1.14-4.42,1.84-6.83,2.02-1.44.11-2.88.08-4.33.11-.09,0-.18-.02-.31-.03v-4.54c.21,0,.42,0,.62,0,2.2.08,4.36-.15,6.46-.83,2.57-.83,4.73-2.29,6.63-4.19,2.1-2.09,3.79-4.45,4.77-7.28.37-1.06.63-2.15.77-3.26.02-.15.06-.3.09-.48Z"/>
  <path class="cls-1" d="m25.24,3.64c.01,2-1.53,3.56-3.51,3.56-2.04,0-3.59-1.52-3.6-3.54C18.11,1.63,19.62.01,21.55,0c2-.02,3.68,1.64,3.69,3.64Z"/>
</svg>